<?xml version="1.0"?>
<svg xmlns="http://www.w3.org/2000/svg" id="outline" viewBox="0 0 512 512" width="512" height="512"><title>funding-financial-resources-money-investment</title><path d="M248,232h16a8.00049,8.00049,0,0,1,.00684,16.001L232,248v16l16,.00049V280h16V264.001h.00684A24.00049,24.00049,0,0,0,264,216H248a8,8,0,0,1,0-16h32V184H264V168H248v16a24,24,0,0,0,0,48Z"/><path d="M24,368H72a8.00008,8.00008,0,0,0,8-8h5.38184A128.848,128.848,0,0,0,160,384h40v24a8.00008,8.00008,0,0,0-8,8v72a8.00008,8.00008,0,0,0,8,8H312a8.00008,8.00008,0,0,0,8-8V416a8.00008,8.00008,0,0,0-8-8h-2.251a102.67286,102.67286,0,0,0,8.11988-24H360a128.86469,128.86469,0,0,0,72.17871-22.32446A8.001,8.001,0,0,0,440,368h48a8.00008,8.00008,0,0,0,8-8V264a8.00008,8.00008,0,0,0-8-8H440a8.00008,8.00008,0,0,0-8,8v16h-6.05469a89.26219,89.26219,0,0,0-59.40625,22.43848A32.14862,32.14862,0,0,0,352,284.30762V200a80.12934,80.12934,0,0,0-58.94043-77.16687l.72168-1.08264A60.6481,60.6481,0,0,0,304,88a8.00008,8.00008,0,0,0-8-8H216a8.00008,8.00008,0,0,0-8,8,60.65086,60.65086,0,0,0,10.21875,33.751l.72168,1.08221A80.12921,80.12921,0,0,0,160,200v79.05566a6.43728,6.43728,0,0,1-3.57812,5.78907,22.35436,22.35436,0,0,0-10.70167,11.45947A89.27848,89.27848,0,0,0,94.05371,280H80V264a8.00008,8.00008,0,0,0-8-8H24a8.00008,8.00008,0,0,0-8,8v96A8.00008,8.00008,0,0,0,24,368Zm424-96h32v80H448ZM304,480H208V424h96Zm-88-72V336h55.97412A62.16434,62.16434,0,0,0,256,377.7832v9.37256h16V377.7832A46.31947,46.31947,0,0,1,285.65625,344.813,7.99917,7.99917,0,0,0,288,339.15576V312a8,8,0,0,1,16,0v51.15576A86.95356,86.95356,0,0,1,291.583,408ZM425.94531,296H432v48h-.001a8.00055,8.00055,0,0,0-4.7998,1.6001A112.69952,112.69952,0,0,1,360,368H319.87378c.075-1.6106.12622-3.22437.12622-4.84424L368,352V336H326.60742C322.96387,335.99951,320,332.41077,320,328.00024v-.00048a8.71448,8.71448,0,0,1,2.1875-5.91968A6.078,6.078,0,0,1,326.61035,320H368v-.00342a7.95726,7.95726,0,0,0,5.65527-2.334A73.45859,73.45859,0,0,1,425.94531,296ZM231.53125,112.87549A44.70579,44.70579,0,0,1,224.71484,96h62.57032a44.70038,44.70038,0,0,1-6.81641,16.875l-4.812,7.21777C274.44385,120.0379,273.22632,120,272,120H240c-1.22632,0-2.44385.0379-3.657.09277ZM163.57812,299.15527A22.34924,22.34924,0,0,0,176,279.05566V200a64.07239,64.07239,0,0,1,64-64h32a64.07239,64.07239,0,0,1,64,64v80.00244H320v16h16A15.99629,15.99629,0,0,1,349.8335,304H326.6084a21.49,21.49,0,0,0-7.54907,1.36353A23.99722,23.99722,0,0,0,272,312v8H206.63818A24.03916,24.03916,0,0,0,184,304h-.00488l-23.926.00488A6.43045,6.43045,0,0,1,163.57812,299.15527ZM94.05371,296a73.45859,73.45859,0,0,1,52.29,21.6626,7.99952,7.99952,0,0,0,5.65723,2.34375h.00195L183.99805,320a8,8,0,0,1,.00488,16H144v16l56,.00061V368H160a112.70022,112.70022,0,0,1-67.2002-22.3999A7.9984,7.9984,0,0,0,88,344H80V296ZM32,272H64v80H32Z"/><rect x="120" y="144" width="24" height="16"/><rect x="368" y="144" width="24" height="16"/><rect x="331.68154" y="56.31867" width="24.0002" height="16.00036" transform="translate(55.18173 261.85817) rotate(-45)"/><rect x="248" y="16" width="16" height="24"/><rect x="160.31818" y="52.31875" width="16.00036" height="24.0002" transform="translate(3.81584 137.85051) rotate(-44.99753)"/></svg>
