<?xml version="1.0"?>
<svg xmlns="http://www.w3.org/2000/svg" id="outline" viewBox="0 0 512 512" width="512" height="512"><rect x="72" y="440" width="32" height="16"/><rect x="240" y="440" width="32" height="16"/><path d="M160,336h16V318.62378A23.99787,23.99787,0,0,0,168,272a8,8,0,0,1,0-16h24V240H176V224H160v17.37622A23.99787,23.99787,0,0,0,168,288a8,8,0,0,1,0,16H144v16h16Z"/><path d="M480,120H312V56a40.04521,40.04521,0,0,0-40-40H64A40.04521,40.04521,0,0,0,24,56V456a40.04521,40.04521,0,0,0,40,40H272a40.04521,40.04521,0,0,0,40-40V328h96a7.99977,7.99977,0,0,0,8-8V264h64a7.99977,7.99977,0,0,0,8-8V128A7.99977,7.99977,0,0,0,480,120Zm-8,40h-8a16.01833,16.01833,0,0,1-16-16v-8h24Zm-96,40h24v24h-8a16.01833,16.01833,0,0,1-16-16Zm-22.62378-16a23.99486,23.99486,0,0,1,45.24756,0ZM360,200v8a32.036,32.036,0,0,0,32,32h8v32h-8a32.036,32.036,0,0,0-32,32v8H256V264h8.80493a40.004,40.004,0,0,0,78.39014,0H368V248H343.19507a40.004,40.004,0,0,0-78.39014,0H256a63.85007,63.85007,0,0,0-21.73584-48ZM144,153.37256V144h48v9.37256A46.2752,46.2752,0,0,1,180.51648,184h-25.033A46.2752,46.2752,0,0,1,144,153.37256Zm55.73657,31.11169c.08863-.15442.176-.30945.26343-.46447v.498C199.91211,184.50684,199.82446,184.49487,199.73657,184.48425ZM192,200a48.05436,48.05436,0,0,1,48,48v96H192v16h53.93872A20.812,20.812,0,0,1,256,377.88867V384H80v-6.11133a20.831,20.831,0,0,1,11.57764-18.7334A7.99924,7.99924,0,0,0,96,352V248a48.05436,48.05436,0,0,1,48-48Zm88,56a24,24,0,1,1,24,24A24.0275,24.0275,0,0,1,280,256Zm24-120v8a16.01833,16.01833,0,0,1-16,16h-8V136Zm-8,320a24.0275,24.0275,0,0,1-24,24H64a24.0275,24.0275,0,0,1-24-24V56A24.0275,24.0275,0,0,1,64,32h52.68652l13.65674,13.65674A7.99877,7.99877,0,0,0,136,48h64a7.99877,7.99877,0,0,0,5.65674-2.34326L219.31348,32H272a24.0275,24.0275,0,0,1,24,24v64H272a7.99977,7.99977,0,0,0-8,8v56H200.01123A62.26225,62.26225,0,0,0,208,153.37256V136a7.99977,7.99977,0,0,0-8-8H136a7.99977,7.99977,0,0,0-8,8v17.37256a62.24828,62.24828,0,0,0,8.26343,31.11169A64.08207,64.08207,0,0,0,80,248v99.4458a36.709,36.709,0,0,0-16,30.44287V392a7.99977,7.99977,0,0,0,8,8H264a7.99977,7.99977,0,0,0,8-8V377.88867a36.709,36.709,0,0,0-16-30.44287V328h40Zm80-144v-8a16.01833,16.01833,0,0,1,16-16h8v24Zm40-112h24V184H415.19507a40.004,40.004,0,0,0-78.39014,0H280v-8h8a32.036,32.036,0,0,0,32-32v-8H432v8a32.036,32.036,0,0,0,32,32h8v32h-8a32.036,32.036,0,0,0-32,32v8H416Zm32,48v-8a16.01833,16.01833,0,0,1,16-16h8v24Z"/></svg>
