<svg height="449pt" viewBox="0 -3 449.97015 449" width="449pt" xmlns="http://www.w3.org/2000/svg"><path d="m194.695312 72.484375h11.117188c3.3125 0 6-2.6875 6-6s-2.6875-6-6-6h-11.117188c-3.316406 0-6 2.6875-6 6s2.683594 6 6 6zm0 0"/><path d="m126 379.484375c-11.597656 0-21 9.402344-21 21s9.402344 21 21 21 21-9.402344 21-21c-.011719-11.59375-9.40625-20.984375-21-21zm0 30c-4.96875 0-9-4.027344-9-9 0-4.96875 4.03125-9 9-9s9 4.03125 9 9c-.003906 4.96875-4.03125 8.996094-9 9zm0 0"/><path d="m359 28.421875c-47.816406-.011719-87.476562 37-90.769531 84.699219h-16.230469v-66.636719c-.027344-25.390625-20.605469-45.96875-46-46h-160c-25.394531.03125-45.9726562 20.609375-46 46v350c.0273438 25.394531 20.605469 45.972656 46 46h160c25.394531-.027344 45.972656-20.605469 46-46v-81.9375h78.667969c9.3125.003906 18.222656-3.789063 24.675781-10.5.71875-.476563 1.304688-1.125 1.703125-1.890625 5.144531-6.152344 7.957031-13.921875 7.953125-21.941406v-69.992188c48.96875-3.25 86.539062-44.75 84.921875-93.800781-1.621094-49.050781-41.84375-87.984375-90.921875-88zm-66.148438 153.5c1.953126 2.066406 3.988282 4.027344 6.097657 5.886719l-54.800781 46.472656c-7.261719 6.195312-17.945313 6.203125-25.210938.011719l-108.382812-91.773438c2.316406-10.167969 11.351562-17.382812 21.777343-17.398437h135.867188c1.289062 21.238281 10.019531 41.347656 24.652343 56.796875zm-86.851562 248.5625h-160c-18.769531-.019531-33.980469-15.230469-34-34v-26h228v26c-.019531 18.769531-15.230469 33.980469-34 34zm34-72h-228v-286h163c3.3125 0 6-2.6875 6-6s-2.6875-6-6-6h-163v-14c.019531-18.769531 15.230469-33.976563 34-34h160c18.769531.023437 33.980469 15.230469 34 34v14h-14c-3.3125 0-6 2.6875-6 6s2.6875 6 6 6h14v40.636719h-107.667969c-17.210937.023437-31.75 12.769531-34.027343 29.828125-.277344.847656-.363282 1.746093-.25 2.628906-.035157.621094-.054688 1.246094-.054688 1.875v132.761719c-.007812 8.015625 2.804688 15.777344 7.9375 21.929687.265625.480469.597656.921875.984375 1.3125.21875.203125.453125.394531.699219.5625 6.460937 6.730469 15.382812 10.53125 24.707031 10.527344h107.671875zm-107.667969-55.9375c-4.425781.007813-8.753906-1.3125-12.429687-3.785156l58.96875-60.3125c1.519531-1.527344 2.097656-3.753907 1.523437-5.832031-.574219-2.074219-2.21875-3.683594-4.308593-4.210938-2.089844-.53125-4.300782.101562-5.796876 1.652344l-58.214843 59.542968c-1.367188-2.9375-2.078125-6.144531-2.074219-9.386718v-122.441406l101.179688 85.671874c11.738281 9.996094 28.996093 9.988282 40.730468-.015624l56.757813-48.136719c13.199219 8.804687 28.496093 13.960937 44.332031 14.933593v69.988282c0 3.257812-.714844 6.480468-2.101562 9.429687l-58.574219-59.597656c-2.320313-2.367187-6.121094-2.398437-8.484375-.074219-2.363282 2.320313-2.394532 6.121094-.074219 8.484375l59.292969 60.320313c-3.667969 2.460937-7.980469 3.773437-12.394532 3.765625zm226.667969-104.121094c-43.628906 0-79-35.371093-79-79 0-43.628906 35.371094-79 79-79s79 35.371094 79 79c0 43.628907-35.371094 79-79 79zm0 0"/><path d="m388.9375 80.234375h.0625c3.3125.015625 6.015625-2.65625 6.03125-5.96875.019531-3.3125-2.65625-6.015625-5.96875-6.03125l-42.441406-.457031-17.011719-.179688h-.0625c-3.316406-.019531-6.015625 2.652344-6.035156 5.96875-.015625 3.3125 2.65625 6.011719 5.96875 6.03125l17.011719.179688c8.464843.089844 15.902343 5.625 18.417968 13.707031l-35.570312-.378906h-.066406c-3.316407-.019531-6.015626 2.652343-6.03125 5.96875-.019532 3.3125 2.652343 6.011719 5.96875 6.03125l35.5625.378906c-2.667969 7.941406-10.105469 13.296875-18.484376 13.3125h-.210937l-17.015625-.183594h-.0625c-2.445312 0-4.648438 1.484375-5.5625 3.753907-.914062 2.265624-.363281 4.863281 1.398438 6.5625l42.089843 40.636718c2.386719 2.261719 6.152344 2.175782 8.4375-.191406 2.285157-2.367188 2.238281-6.132812-.105469-8.441406l-31.238281-30.160156 1.929688.023437h.339843c14.953126-.023437 27.835938-10.535156 30.859376-25.179687l11.511718.125h.066406c3.316407.015624 6.015626-2.65625 6.03125-5.96875.019532-3.316407-2.652343-6.015626-5.96875-6.03125l-11.5-.125c-.890624-4.945313-2.96875-9.605469-6.054687-13.574219zm0 0"/></svg>